<svg id="Capa_1" data-name="Capa 1" xmlns="http://www.w3.org/2000/svg" viewBox="0 0 320.29 64.15"><defs><style>.cls-1{fill:#0056c8;}.cls-2,.cls-3{fill:#fff;}.cls-2{stroke:#000;stroke-miterlimit:10;}</style></defs><path class="cls-1" d="M212.05,203.91l14.4,35.7h-8.8l-2.6-7.1h-13.6l-2.6,7.1h-8.8l14.4-35.7Zm.2,21.4-4-10.4h-.1l-4,10.4Z" transform="translate(-111.31 -201.32)"/><path class="cls-1" d="M236,203.91v28.6h12.3v7.1h-20.5v-35.7Z" transform="translate(-111.31 -201.32)"/><path class="cls-1" d="M250.08,211v-7.1h25.1V211h-8.5v28.6h-8.1V211Z" transform="translate(-111.31 -201.32)"/><path class="cls-1" d="M296.25,203.91l14.4,35.8h-8.8l-2.6-7.1h-13.5l-2.6,7.1h-8.8l14.4-35.8Zm.3,21.4-4-10.4h-.1l-4,10.4Z" transform="translate(-111.31 -201.32)"/><path class="cls-1" d="M341.63,239.61l-1.7-21.2h-.2l-7.3,21h-4.9l-7.3-21H320l-1.7,21.2h-8.1l3.2-35.8h8.7l7.9,20.6,7.9-20.6h8.7l3.2,35.8Z" transform="translate(-111.31 -201.32)"/><path class="cls-1" d="M361.27,203.91v35.8h-8.1v-35.8Z" transform="translate(-111.31 -201.32)"/><path class="cls-1" d="M366.48,203.91h12.8a12.36,12.36,0,0,1,8.4,2.8c2.2,1.8,3.2,4.5,3.2,7.9a11,11,0,0,1-2,6.6,10.68,10.68,0,0,1-5.4,3.8l12.4,14.6h-10.4l-10.9-14.1v14.1h-8.1Zm8.1,15.8h2.9a6.72,6.72,0,0,0,1.8-.3,3.45,3.45,0,0,0,1.6-.8,3,3,0,0,0,1-1.4,6.25,6.25,0,0,0,0-4.4,3.88,3.88,0,0,0-1-1.4,3.38,3.38,0,0,0-1.6-.7,6.15,6.15,0,0,0-1.8-.3h-2.9Z" transform="translate(-111.31 -201.32)"/><path class="cls-1" d="M415.65,203.91l14.4,35.8h-8.8l-2.6-7.1h-13.6l-2.6,7.1h-8.8l14.4-35.8Zm.2,21.4-4-10.4h-.1l-4,10.4Z" transform="translate(-111.31 -201.32)"/><path d="M205.2,258.51a.31.31,0,0,1,.1.2.76.76,0,0,1-.1.4,2.09,2.09,0,0,1-.4.6c-.2.2-.5.6-.9,1a6.92,6.92,0,0,1-3.4,1.9,11.72,11.72,0,0,1-2.7.4,7.64,7.64,0,0,1-5.9-2.5,9,9,0,0,1-2.4-6.5,8.6,8.6,0,0,1,2.4-6.4,7.85,7.85,0,0,1,5.8-2.4,6.27,6.27,0,0,1,5.5,2.6v-2.2a.27.27,0,0,1,.3-.3h1.4a.27.27,0,0,1,.3.3v5.3a.27.27,0,0,1-.3.3h-1.5a.27.27,0,0,1-.3-.3v-.2a3.27,3.27,0,0,0-1.5-2.3,6,6,0,0,0-3.8-1.2,5.7,5.7,0,0,0-4.1,1.8,6.81,6.81,0,0,0-1.8,5,6.9,6.9,0,0,0,1.8,5.1,5.82,5.82,0,0,0,4.3,1.8,6.56,6.56,0,0,0,4.2-1.2,6.4,6.4,0,0,0,1.8-1.9c.1-.2.3-.3.5-.1Z" transform="translate(-111.31 -201.32)"/><path d="M224.58,254.21a9,9,0,0,1-2.4,6.5,7.85,7.85,0,0,1-6,2.5,8.22,8.22,0,0,1-6.1-2.5,9,9,0,0,1-2.4-6.5,8.38,8.38,0,0,1,8.5-8.8,8.07,8.07,0,0,1,5.9,2.4A8.66,8.66,0,0,1,224.58,254.21Zm-12.8,5.1a6.08,6.08,0,0,0,4.3,1.9,5.56,5.56,0,0,0,4.3-1.9,6.94,6.94,0,0,0,1.9-5.1,6.57,6.57,0,0,0-1.9-5.1,6,6,0,0,0-4.3-1.8,6.15,6.15,0,0,0-4.3,1.8,6.57,6.57,0,0,0-1.9,5.1A7.38,7.38,0,0,0,211.78,259.31Z" transform="translate(-111.31 -201.32)"/><path d="M242,262.91h-1.3a1.17,1.17,0,0,1-.7-.2c-.2-.1-.3-.3-.5-.6l-7-11-1.2-2h0V261h1.9a.27.27,0,0,1,.3.3v1.2a.27.27,0,0,1-.3.3h-5.8a.27.27,0,0,1-.3-.3v-1.2a.27.27,0,0,1,.3-.3h1.8v-13.6h-1.8a.27.27,0,0,1-.3-.3v-1.2a.27.27,0,0,1,.3-.3h3.4a1.41,1.41,0,0,1,1.2.8l6.8,10.8,1.4,2.4h.1v-12.2h-2a.27.27,0,0,1-.3-.3v-1.2a.27.27,0,0,1,.3-.3h5.9a.27.27,0,0,1,.3.3v1.2a.27.27,0,0,1-.3.3h-1.9v15.3C242.3,262.81,242.2,262.91,242,262.91Z" transform="translate(-111.31 -201.32)"/><path d="M248.41,262.91H247a.27.27,0,0,1-.3-.3v-5.7a.27.27,0,0,1,.3-.3h1.5a.27.27,0,0,1,.3.3v.5a2.2,2.2,0,0,0,.6,1.2,6.53,6.53,0,0,0,1.1,1.2,5.3,5.3,0,0,0,1.5.8,6.47,6.47,0,0,0,2,.4,5,5,0,0,0,2.9-.8A2.53,2.53,0,0,0,258,258a2,2,0,0,0-.6-1.4,3.77,3.77,0,0,0-1.5-.9q-.9-.3-2.1-.6a20.16,20.16,0,0,1-2.3-.7,6.67,6.67,0,0,1-2.1-.9,4,4,0,0,1-2.1-3.6,4.33,4.33,0,0,1,1.5-3.4,5.94,5.94,0,0,1,4.1-1.3c2.2,0,3.8.6,4.8,1.9v-1.5a.27.27,0,0,1,.3-.3h1.4a.27.27,0,0,1,.3.3v5.3a.27.27,0,0,1-.3.3h-1.5a.27.27,0,0,1-.3-.3v-.7a2.91,2.91,0,0,0-1.1-2,4.5,4.5,0,0,0-3.3-1,4.24,4.24,0,0,0-2.6.8,2.17,2.17,0,0,0-1,1.9,2,2,0,0,0,.6,1.5,4.88,4.88,0,0,0,1.6,1c.7.2,1.4.5,2.1.7a15.46,15.46,0,0,1,2.3.7,6.67,6.67,0,0,1,2.1.9,3.64,3.64,0,0,1,1.6,1.4,3.7,3.7,0,0,1,.6,2.1,4.54,4.54,0,0,1-1.5,3.5,6.65,6.65,0,0,1-4.6,1.4,7,7,0,0,1-3.7-.9,5.64,5.64,0,0,1-2.1-1.9v2.4C248.71,262.81,248.61,262.91,248.41,262.91Z" transform="translate(-111.31 -201.32)"/><path d="M273.32,262.91h-5.6a.27.27,0,0,1-.3-.3v-1.2a.27.27,0,0,1,.3-.3h1.9v-13.7H265V250c0,.2-.1.3-.4.3h-1.4a.27.27,0,0,1-.3-.3v-4.1a.27.27,0,0,1,.3-.3h14.6a.27.27,0,0,1,.3.3V250a.27.27,0,0,1-.3.3h-1.4a.27.27,0,0,1-.3-.3v-2.6h-4.5v13.8h1.7c.2,0,.4.1.4.3v1.2C273.72,262.81,273.62,262.91,273.32,262.91Z" transform="translate(-111.31 -201.32)"/><path d="M295.25,262.91h-2.1q-.9,0-1.5-1.2l-2.3-4.6a3.49,3.49,0,0,0-.6-.9,1.22,1.22,0,0,0-.9-.3h-3.1v5.2H287a.27.27,0,0,1,.3.3v1.2a.27.27,0,0,1-.3.3h-6.1a.27.27,0,0,1-.3-.3v-1.2a.27.27,0,0,1,.3-.3h1.8v-13.7h-1.8a.27.27,0,0,1-.3-.3v-1.2a.27.27,0,0,1,.3-.3h7.5a6.44,6.44,0,0,1,4.2,1.4,4.72,4.72,0,0,1,1.6,3.9,4.56,4.56,0,0,1-3.6,4.8,4.71,4.71,0,0,1,1.1,1.6l2,4h1.5a.27.27,0,0,1,.3.3v1.2C295.55,262.81,295.45,262.91,295.25,262.91Zm-10.4-8.7H288c2.8,0,4.1-1.1,4.1-3.4s-1.4-3.5-4.1-3.5h-3.1Z" transform="translate(-111.31 -201.32)"/><path d="M311.05,256.61v-9.3h-1.9a.27.27,0,0,1-.3-.3v-1.2a.27.27,0,0,1,.3-.3h5.9a.27.27,0,0,1,.3.3V247a.27.27,0,0,1-.3.3h-1.9v9.1a7,7,0,0,1-1.7,5,6.68,6.68,0,0,1-4.8,1.7,6.52,6.52,0,0,1-4.8-1.7c-1.2-1.1-1.7-2.8-1.7-5v-9.1h-1.8a.27.27,0,0,1-.3-.3v-1.2a.27.27,0,0,1,.3-.3h5.8a.27.27,0,0,1,.3.3V247a.27.27,0,0,1-.3.3h-1.9v9.1c0,3.1,1.5,4.7,4.5,4.7a4.16,4.16,0,0,0,3.3-1.2A5.19,5.19,0,0,0,311.05,256.61Z" transform="translate(-111.31 -201.32)"/><path d="M333.36,258.51a.31.31,0,0,1,.1.2.76.76,0,0,1-.1.4,2.09,2.09,0,0,1-.4.6c-.2.2-.5.6-.9,1a6.92,6.92,0,0,1-3.4,1.9,11.72,11.72,0,0,1-2.7.4,7.64,7.64,0,0,1-5.9-2.5,9,9,0,0,1-2.4-6.5,8.6,8.6,0,0,1,2.4-6.4,7.85,7.85,0,0,1,5.8-2.4,6.27,6.27,0,0,1,5.5,2.6v-2.2a.27.27,0,0,1,.3-.3h1.4a.27.27,0,0,1,.3.3v5.3a.27.27,0,0,1-.3.3h-1.7a.27.27,0,0,1-.3-.3v-.2a3.27,3.27,0,0,0-1.5-2.3,6,6,0,0,0-3.8-1.2,5.7,5.7,0,0,0-4.1,1.8,6.81,6.81,0,0,0-1.8,5,6.9,6.9,0,0,0,1.8,5.1,5.82,5.82,0,0,0,4.3,1.8,6.56,6.56,0,0,0,4.2-1.2,6.4,6.4,0,0,0,1.8-1.9c.1-.2.3-.3.5-.1Z" transform="translate(-111.31 -201.32)"/><path d="M351.63,258.51a.31.31,0,0,1,.1.2.76.76,0,0,1-.1.4,2.09,2.09,0,0,1-.4.6c-.2.2-.5.6-.9,1a6.92,6.92,0,0,1-3.4,1.9,11.72,11.72,0,0,1-2.7.4,7.64,7.64,0,0,1-5.9-2.5,9,9,0,0,1-2.4-6.5,8.6,8.6,0,0,1,2.4-6.4,7.85,7.85,0,0,1,5.8-2.4,6.27,6.27,0,0,1,5.5,2.6v-2.2a.27.27,0,0,1,.3-.3h1.4a.27.27,0,0,1,.3.3v5.3a.27.27,0,0,1-.3.3h-1.5a.27.27,0,0,1-.3-.3v-.2a3.27,3.27,0,0,0-1.5-2.3,6,6,0,0,0-3.8-1.2,5.7,5.7,0,0,0-4.1,1.8,6.81,6.81,0,0,0-1.8,5,6.9,6.9,0,0,0,1.8,5.1,5.82,5.82,0,0,0,4.3,1.8,6.56,6.56,0,0,0,4.2-1.2,6.4,6.4,0,0,0,1.8-1.9c.1-.2.3-.3.5-.1Z" transform="translate(-111.31 -201.32)"/><path d="M360.21,262.91h-5.8a.27.27,0,0,1-.3-.3v-1.2a.27.27,0,0,1,.3-.3h1.8v-13.7h-1.8a.27.27,0,0,1-.3-.3v-1.2a.27.27,0,0,1,.3-.3h5.8a.27.27,0,0,1,.3.3v1.2a.27.27,0,0,1-.3.3h-1.9v13.8h1.9a.27.27,0,0,1,.3.3v1.2C360.51,262.81,360.41,262.91,360.21,262.91Z" transform="translate(-111.31 -201.32)"/><path d="M379.79,254.21a9,9,0,0,1-2.4,6.5,7.85,7.85,0,0,1-6,2.5,8.22,8.22,0,0,1-6.1-2.5,9,9,0,0,1-2.4-6.5,8.38,8.38,0,0,1,8.5-8.8,8.07,8.07,0,0,1,5.9,2.4A8.66,8.66,0,0,1,379.79,254.21Zm-12.8,5.1a6.08,6.08,0,0,0,4.3,1.9,5.56,5.56,0,0,0,4.3-1.9,6.94,6.94,0,0,0,1.9-5.1,6.57,6.57,0,0,0-1.9-5.1,6,6,0,0,0-4.3-1.8,6.15,6.15,0,0,0-4.3,1.8,6.57,6.57,0,0,0-1.9,5.1A7.38,7.38,0,0,0,367,259.31Z" transform="translate(-111.31 -201.32)"/><path d="M397.22,262.91h-1.3a1.17,1.17,0,0,1-.7-.2c-.2-.1-.3-.3-.5-.6l-7-11-1.2-2h0V261h1.9a.27.27,0,0,1,.3.3v1.2a.27.27,0,0,1-.3.3h-5.8a.27.27,0,0,1-.3-.3v-1.2a.27.27,0,0,1,.3-.3h1.8v-13.6h-1.8a.27.27,0,0,1-.3-.3v-1.2a.27.27,0,0,1,.3-.3H386a1.41,1.41,0,0,1,1.2.8l6.9,10.8,1.4,2.4h.1v-12.2h-1.9a.27.27,0,0,1-.3-.3v-1.2a.27.27,0,0,1,.3-.3h5.9a.27.27,0,0,1,.3.3v1.2a.27.27,0,0,1-.3.3h-1.9v15.3C397.52,262.81,397.42,262.91,397.22,262.91Z" transform="translate(-111.31 -201.32)"/><path d="M415.23,262.91h-12.9a.27.27,0,0,1-.3-.3v-1.2a.27.27,0,0,1,.3-.3h1.8v-13.7h-1.8a.27.27,0,0,1-.3-.3v-1.2a.27.27,0,0,1,.3-.3h12.9a.27.27,0,0,1,.3.3v3.9a.27.27,0,0,1-.3.3h-1.3a.27.27,0,0,1-.3-.3v-2.4h-7.3v6h6.1a.27.27,0,0,1,.3.3v1.2a.27.27,0,0,1-.3.3h-6.1v5.9h7.3v-2.4a.27.27,0,0,1,.3-.3h1.3a.27.27,0,0,1,.3.3v3.9A.27.27,0,0,1,415.23,262.91Z" transform="translate(-111.31 -201.32)"/><path d="M419.51,262.91h-1.4a.27.27,0,0,1-.3-.3v-5.7a.27.27,0,0,1,.3-.3h1.5a.27.27,0,0,1,.3.3v.5a2.2,2.2,0,0,0,.6,1.2,6.53,6.53,0,0,0,1.1,1.2,5.3,5.3,0,0,0,1.5.8,6.47,6.47,0,0,0,2,.4,5,5,0,0,0,2.9-.8,2.53,2.53,0,0,0,1.1-2.2,2,2,0,0,0-.6-1.4,3.77,3.77,0,0,0-1.5-.9q-.9-.3-2.1-.6a20.16,20.16,0,0,1-2.3-.7,6.67,6.67,0,0,1-2.1-.9,4,4,0,0,1-2.1-3.6,4.33,4.33,0,0,1,1.5-3.4,5.94,5.94,0,0,1,4.1-1.3c2.2,0,3.8.6,4.8,1.9v-1.5a.27.27,0,0,1,.3-.3h1.4a.27.27,0,0,1,.3.3v5.3a.27.27,0,0,1-.3.3H429a.27.27,0,0,1-.3-.3v-.7a2.91,2.91,0,0,0-1.1-2,4.5,4.5,0,0,0-3.3-1,4.24,4.24,0,0,0-2.6.8,2.17,2.17,0,0,0-1,1.9,2,2,0,0,0,.6,1.5,4.88,4.88,0,0,0,1.6,1c.7.2,1.4.5,2.1.7a15.46,15.46,0,0,1,2.3.7,6.67,6.67,0,0,1,2.1.9,3.64,3.64,0,0,1,1.6,1.4,3.7,3.7,0,0,1,.6,2.1,4.54,4.54,0,0,1-1.5,3.5,6.65,6.65,0,0,1-4.6,1.4,7,7,0,0,1-3.7-.9,5.64,5.64,0,0,1-2.1-1.9v2.4C419.81,262.81,419.71,262.91,419.51,262.91Z" transform="translate(-111.31 -201.32)"/><path class="cls-2" d="M146,255.5" transform="translate(-111.31 -201.32)"/><path class="cls-3" d="M145.54,255.5l34-20.68a0,0,0,0,0,0-.06l-34.11-14.59h0L112,234.9a0,0,0,0,0,0,.06l33.54,20.54C145.52,258.6,145.54,253,145.54,255.5Z" transform="translate(-111.31 -201.32)"/><path d="M145.53,257h0c-.34,0-.44-.07-.48-.53h0v-.21c0-.13,0-.28,0-.45l-33.25-20.36-.31-.1v-.8l.34-.09,33.5-14.78.28.06L180,234.43l.06.73-.32.11L146,255.78c0,.18,0,.33,0,.46s0,.18,0,.21h0C146,256.87,145.87,257,145.53,257ZM113,235l32.09,19.65c.06-.23.18-.3.45-.3s.39.08.45.29l32.48-19.78L145.38,220.7Z" transform="translate(-111.31 -201.32)"/><path class="cls-3" d="M111.87,235v1.93s0,.05,0,.05l33.64,19.53a8.55,8.55,0,0,0,0-1h0s0-1.48,0-1.49L112,234.94A.05.05,0,0,0,111.87,235Z" transform="translate(-111.31 -201.32)"/><path d="M145.65,257.05l-.36-.12-33.58-19.5-.3-.09,0-.42v-2.18l.43-.34.4.1,33.49,19.05c.34.12.34.33.34,1.95.05,1.08.06,1.21-.18,1.39Zm-33.28-20.39,32.67,19h0v-.12c0-.14,0-.82,0-1.19l-32.64-18.56Z" transform="translate(-111.31 -201.32)"/><path class="cls-3" d="M179.52,235v2.17a.14.14,0,0,1-.1.13L145.6,256.36s-.07-.86-.07-.86V254l34-19.07Z" transform="translate(-111.31 -201.32)"/><path d="M145.58,257l-.25-.17c-.23-.15-.23-.15-.3-1.25v-1.81l.26-.14,34.25-19.23.48.34v2.43a.64.64,0,0,1-.38.58Zm.45-1.45v0l33-18.64v-1.12l-33,18.53v1.19Z" transform="translate(-111.31 -201.32)"/><path class="cls-3" d="M145.49,237.88l34-15.49s0,0,0,0L145.34,212a2.26,2.26,0,0,0,0,.26l-33.41,10.19s0,.05,0,.05l33.55,15.19A.88.88,0,0,0,145.49,237.88Z" transform="translate(-111.31 -201.32)"/><path d="M145.44,238.45l-.43-.29v-.11l-33.59-15.2v-.37l0-.38.4-.11,33-10.08a.49.49,0,0,1,.16-.26l.21-.18L179.92,222l.06.77-.39.14ZM113.26,222.6l32.39,14.65,32.46-14.79-32.43-9.81a.52.52,0,0,1-.23.13Z" transform="translate(-111.31 -201.32)"/><path class="cls-3" d="M111.81,222.57v1.92a.07.07,0,0,0,0,.06l33.55,15.89s.08,0,.08,0v-2.72s0,0,0,0l-33.55-15.21A.06.06,0,0,0,111.81,222.57Z" transform="translate(-111.31 -201.32)"/><path d="M145.53,241l-.29-.1-33.89-16,0-.38v-2.17l.43-.35.3.06,33.38,15.14.05,0,.51.28v3.29Zm-33.22-16.8L145,239.69v-1.63l-32.67-14.81Z" transform="translate(-111.31 -201.32)"/><path class="cls-3" d="M179.47,222.52v2.17a.14.14,0,0,1-.1.13l-33.86,15.62s0-2.72,0-2.72h0l34-15.2A0,0,0,0,1,179.47,222.52Z" transform="translate(-111.31 -201.32)"/><path d="M145.45,241l-.24-.17c-.22-.16-.22-.16-.23-3.13v-.32l34.54-15.46.44.33v2.42a.63.63,0,0,1-.45.61Zm.53-3c0,.53,0,1.15,0,1.63l33-15.21v-1.19Zm33.18-13.67,0,0Z" transform="translate(-111.31 -201.32)"/><path class="cls-3" d="M145.81,219.19l34-10.44a0,0,0,0,0,0-.05l-34.1-6.87h0l-33.4,7a0,0,0,0,0,0,0l33.55,10.3Z" transform="translate(-111.31 -201.32)"/><path d="M145.81,219.71l-.14,0-33.94-10.42v-.42l0-.38.4-.11,33.51-7,.12,0,34.48,6.94.05.8-.39.14ZM114.14,209l31.66,9.72,32-9.85-32.18-6.48Z" transform="translate(-111.31 -201.32)"/><path class="cls-3" d="M112.13,208.93v1.92a.06.06,0,0,0,.05.06l33.54,10.86a.06.06,0,0,0,.08-.06v-2.47a.07.07,0,0,0,0-.06l-33.54-10.31A.07.07,0,0,0,112.13,208.93Z" transform="translate(-111.31 -201.32)"/><path d="M145.86,222.31l-.3-.07-33.88-11-.05-.42v-2.18l.44-.34.3.06,33.89,10.42,0,.43V222Zm-33.23-11.78,32.67,10.58v-1.54l-32.67-10Z" transform="translate(-111.31 -201.32)"/><path class="cls-3" d="M179.79,208.88v2.17a.14.14,0,0,1-.1.13l-33.86,10.61s0,0,0,0v-2.53l34-10.36Z" transform="translate(-111.31 -201.32)"/><path d="M145.73,222.34l-.42-.31v-3.16l34.58-10.55.4.31v2.42a.64.64,0,0,1-.45.61Zm.57-2.73v1.51l33-10.34v-1.23Z" transform="translate(-111.31 -201.32)"/><path class="cls-3" d="M143.79,255.5l-.1,7.93s-.3,1.42,1.87,1.53,1.87-1.53,1.87-1.53v-8l-1.87.93Z" transform="translate(-111.31 -201.32)"/><path d="M145.76,265.47h-.22a2.58,2.58,0,0,1-2-.84,1.68,1.68,0,0,1-.33-1.23l.11-8.68,2.26,1.1,2.37-1.19v8.81h0a1.75,1.75,0,0,1-.41,1.38A2.21,2.21,0,0,1,145.76,265.47Zm-1.48-9.18-.1,7.25a.66.66,0,0,0,.14.48,1.7,1.7,0,0,0,1.27.44,1.49,1.49,0,0,0,1.18-.31.86.86,0,0,0,.17-.62v-7.29l-1.36.68Z" transform="translate(-111.31 -201.32)"/><path class="cls-3" d="M130.35,247.75v7.73s-.33,1.36,1.87,1.39,1.87-1.73,1.87-1.73V249.9Z" transform="translate(-111.31 -201.32)"/><path d="M132.27,257.37h-.05a2.52,2.52,0,0,1-2.07-.77,1.56,1.56,0,0,1-.3-1.17v-8.55l4.74,2.73v5.53h0a1.91,1.91,0,0,1-.42,1.5A2.32,2.32,0,0,1,132.27,257.37Zm-1.43-1.77a.51.51,0,0,0,.11.39,1.7,1.7,0,0,0,1.28.38,1.46,1.46,0,0,0,1.17-.36,1.08,1.08,0,0,0,.2-.78v-5l-2.74-1.57v7Z" transform="translate(-111.31 -201.32)"/><path class="cls-3" d="M118.44,240.79v7.45s-.33,1.36,1.87,1.39,1.86-1.72,1.86-1.72v-5Z" transform="translate(-111.31 -201.32)"/><path d="M120.36,250.13h-.06a2.5,2.5,0,0,1-2.06-.77,1.51,1.51,0,0,1-.3-1.17v-8.26l4.73,2.7v5.28h0a1.91,1.91,0,0,1-.41,1.49A2.33,2.33,0,0,1,120.36,250.13Zm-1.43-1.77a.53.53,0,0,0,.1.39,1.74,1.74,0,0,0,1.28.38,1.38,1.38,0,0,0,1.18-.36,1,1,0,0,0,.19-.78v-4.78l-2.73-1.56v6.71Z" transform="translate(-111.31 -201.32)"/><path class="cls-3" d="M130.35,233.36v7.55s-.33,1.36,1.87,1.39,1.87-1.73,1.87-1.73v-5.44Z" transform="translate(-111.31 -201.32)"/><path d="M132.27,242.8h-.05a2.52,2.52,0,0,1-2.07-.78,1.53,1.53,0,0,1-.3-1.16v-8.29l4.74,2.25v5.75h0a1.92,1.92,0,0,1-.42,1.5A2.35,2.35,0,0,1,132.27,242.8ZM130.84,241a.53.53,0,0,0,.11.4,1.7,1.7,0,0,0,1.28.38,1.43,1.43,0,0,0,1.17-.37,1.06,1.06,0,0,0,.2-.77v-5.21l-2.74-1.3V241Z" transform="translate(-111.31 -201.32)"/><path class="cls-3" d="M118.44,227.7v7.91s-.33,1.37,1.87,1.39,1.86-1.72,1.86-1.72v-5.75Z" transform="translate(-111.31 -201.32)"/><path d="M120.36,237.5h-.06a2.5,2.5,0,0,1-2.06-.77,1.49,1.49,0,0,1-.3-1.16V226.9l4.73,2.32v6.06h0a1.93,1.93,0,0,1-.41,1.5A2.36,2.36,0,0,1,120.36,237.5Zm-1.43-1.77a.53.53,0,0,0,.1.39,1.69,1.69,0,0,0,1.28.38,1.41,1.41,0,0,0,1.18-.36,1,1,0,0,0,.19-.77v-5.52l-2.73-1.35v7.23Z" transform="translate(-111.31 -201.32)"/><path class="cls-3" d="M130.35,216.83v8s-.33,1.37,1.87,1.4,1.87-1.73,1.87-1.73v-6.36Z" transform="translate(-111.31 -201.32)"/><path d="M132.27,226.72h-.05a2.55,2.55,0,0,1-2.07-.78,1.53,1.53,0,0,1-.3-1.16v-8.65l4.74,1.64v6.72h0a1.92,1.92,0,0,1-.42,1.5A2.35,2.35,0,0,1,132.27,226.72Zm-1.43-1.78a.53.53,0,0,0,.11.4,1.75,1.75,0,0,0,1.28.38,1.43,1.43,0,0,0,1.17-.37,1.06,1.06,0,0,0,.2-.77v-6.1l-2.74-.95v7.41Z" transform="translate(-111.31 -201.32)"/><path class="cls-3" d="M118.44,213v7.87s-.33,1.36,1.87,1.39,1.86-1.73,1.86-1.73v-6.32Z" transform="translate(-111.31 -201.32)"/><path d="M120.36,222.76h-.06a2.5,2.5,0,0,1-2.06-.77,1.51,1.51,0,0,1-.3-1.17v-8.5l4.73,1.52v6.69h0a1.93,1.93,0,0,1-.41,1.5A2.33,2.33,0,0,1,120.36,222.76ZM118.93,221a.53.53,0,0,0,.1.39,1.74,1.74,0,0,0,1.28.38,1.44,1.44,0,0,0,1.18-.36,1,1,0,0,0,.19-.78v-6.05l-2.73-.88V221Z" transform="translate(-111.31 -201.32)"/><path class="cls-3" d="M143.75,239.69V248s-.3,1.53,1.87,1.64,1.87-1.64,1.87-1.64v-8.38l-1.87.92Z" transform="translate(-111.31 -201.32)"/><path d="M145.82,250.1h-.23a2.53,2.53,0,0,1-2-.85,1.85,1.85,0,0,1-.35-1.39v-8.92l2.36,1,2.38-1.17V248a2,2,0,0,1-.44,1.5A2.2,2.2,0,0,1,145.82,250.1Zm-1.57-9.66V248a.89.89,0,0,0,.16.69,1.69,1.69,0,0,0,1.24.45,1.45,1.45,0,0,0,1.15-.31,1,1,0,0,0,.2-.74v-7.67l-1.35.67Z" transform="translate(-111.31 -201.32)"/><path class="cls-3" d="M143.93,221.21v8.68s-.3,1.52,1.87,1.64,1.87-1.64,1.87-1.64l.1-8.66-2,.57Z" transform="translate(-111.31 -201.32)"/><path d="M146,232h-.23a2.56,2.56,0,0,1-2-.85,1.85,1.85,0,0,1-.35-1.39v-9.26l2.38.74,2.47-.7-.11,9.33a1.92,1.92,0,0,1-.44,1.48A2.19,2.19,0,0,1,146,232Zm-1.57-10.14v8a.92.92,0,0,0,.15.69,1.73,1.73,0,0,0,1.25.45,1.49,1.49,0,0,0,1.15-.31,1,1,0,0,0,.19-.74l.1-8.08-1.47.42Z" transform="translate(-111.31 -201.32)"/><path class="cls-3" d="M158.34,249.24v6.3s-.28,1.3,1.86,1.46,1.87-1.73,1.87-1.73v-8.15Z" transform="translate(-111.31 -201.32)"/><path d="M160.46,257.51h-.29a2.64,2.64,0,0,1-2-.88,1.54,1.54,0,0,1-.3-1.12V249l4.73-2.69v9a2.1,2.1,0,0,1-.5,1.63A2.07,2.07,0,0,1,160.46,257.51Zm-1.63-1.86a.55.55,0,0,0,.12.39c.14.18.48.4,1.29.46a1.31,1.31,0,0,0,1.1-.27,1.25,1.25,0,0,0,.23-.89V248l-2.73,1.55v6.12Z" transform="translate(-111.31 -201.32)"/><path class="cls-3" d="M169.63,242.79v6.53s-.28,1.3,1.86,1.46,1.87-1.73,1.87-1.73V240.7Z" transform="translate(-111.31 -201.32)"/><path d="M171.75,251.29h-.29a2.64,2.64,0,0,1-2-.88,1.54,1.54,0,0,1-.3-1.12v-6.79l4.73-2.64v9.2a2.1,2.1,0,0,1-.5,1.63A2.07,2.07,0,0,1,171.75,251.29Zm-1.63-1.86a.55.55,0,0,0,.12.39c.14.18.48.4,1.29.46a1.31,1.31,0,0,0,1.1-.28,1.16,1.16,0,0,0,.23-.87v-7.58l-2.73,1.53v6.35Z" transform="translate(-111.31 -201.32)"/><path class="cls-3" d="M158.26,234.62v6.63s-.29,1.3,1.86,1.46S162,241,162,241v-8.13Z" transform="translate(-111.31 -201.32)"/><path d="M160.37,243.22h-.29a2.67,2.67,0,0,1-2-.88,1.52,1.52,0,0,1-.29-1.12V234.3l4.73-2.24V241a2.16,2.16,0,0,1-.5,1.63A2.13,2.13,0,0,1,160.37,243.22Zm-1.63-1.87a.66.66,0,0,0,.13.39,1.73,1.73,0,0,0,1.29.47,1.34,1.34,0,0,0,1.1-.28,1.23,1.23,0,0,0,.23-.88v-7.41l-2.73,1.3,0,6.41Z" transform="translate(-111.31 -201.32)"/><path class="cls-3" d="M169.63,229.35v6.41s-.28,1.3,1.86,1.46,1.87-1.73,1.87-1.73v-7.86Z" transform="translate(-111.31 -201.32)"/><path d="M171.74,237.73h-.28a2.67,2.67,0,0,1-2-.88,1.55,1.55,0,0,1-.3-1.12V229l4.73-2.18v8.64a1.95,1.95,0,0,1-2.12,2.24Zm-1.62-1.87a.55.55,0,0,0,.12.39,1.73,1.73,0,0,0,1.29.47,1.34,1.34,0,0,0,1.1-.28,1.18,1.18,0,0,0,.23-.88v-7.15l-2.73,1.26v6.19Z" transform="translate(-111.31 -201.32)"/><path class="cls-3" d="M158.34,217.88v7.29s-.28,1.3,1.86,1.46,1.87-1.73,1.87-1.73v-8.19Z" transform="translate(-111.31 -201.32)"/><path d="M160.46,227.14h-.29a2.67,2.67,0,0,1-2-.88,1.55,1.55,0,0,1-.3-1.12v-7.62l4.73-1.48v8.87a1.95,1.95,0,0,1-2.11,2.24Zm-1.63-1.87a.55.55,0,0,0,.12.39,1.73,1.73,0,0,0,1.29.47,1.34,1.34,0,0,0,1.1-.28,1.18,1.18,0,0,0,.23-.88v-7.58l-2.73.86v7Z" transform="translate(-111.31 -201.32)"/><path class="cls-3" d="M169.63,214.38v7.25s-.28,1.3,1.86,1.46,1.87-1.73,1.87-1.73v-8.2Z" transform="translate(-111.31 -201.32)"/><path d="M171.75,223.6h-.29a2.64,2.64,0,0,1-2-.88,1.54,1.54,0,0,1-.3-1.12V214l4.73-1.54v8.89a2.1,2.1,0,0,1-.5,1.63A2.07,2.07,0,0,1,171.75,223.6Zm-1.63-1.86a.55.55,0,0,0,.12.39c.14.18.48.4,1.29.46a1.31,1.31,0,0,0,1.1-.28,1.16,1.16,0,0,0,.23-.87v-7.59l-2.73.89v7Z" transform="translate(-111.31 -201.32)"/></svg>